# xmcd
#
# Track frame offsets:
#	150
#	14404
#	25044
#	48843
#	65531
#	82576
#	97255
#	116662
#	131374
#	147868
#
# Disc length: 2105 seconds
#
# Revision: 1
# Processed by: cddbd v1.5.2PL0 Copyright (c) Steve Scherf et al.
# Submitted via: audiograbber 1.83.01
#
DISCID=7a08370a
DTITLE=Kenny - Double Crossed
DYEAR=1900
DGENRE=
TTITLE0=Doublecrossed
TTITLE1=Steel Guitar Rag
TTITLE2=Secret Love
TTITLE3=Devil Went Down To Georgia
TTITLE4=Wind Beneath My Wings
TTITLE5=7's Up
TTITLE6=Farewell Party
TTITLE7=Fishing Hole
TTITLE8=Caravan
TTITLE9=Somewhere Over The Rainbow
EXTD=
EXTT0=
EXTT1=
EXTT2=
EXTT3=
EXTT4=
EXTT5=
EXTT6=
EXTT7=
EXTT8=
EXTT9=
PLAYORDER=
